<svg width="233" height="84" viewBox="0 0 233 84" fill="none" xmlns="http://www.w3.org/2000/svg">
<path d="M40 81.8C30.8 81.8 23.2667 79.8667 17.4 76C11.5333 72 7.13333 66.9333 4.2 60.8C1.4 54.6667 0 48.4667 0 42.2C0 35.5333 1.33333 29.6 4 24.4C6.8 19.2 10.4667 14.8667 15 11.4C19.5333 7.8 24.4667 5.06667 29.8 3.2C35.2667 1.33333 40.6667 0.400001 46 0.400001C49.8667 0.400001 53.6667 0.933333 57.4 2C61.1333 3.06667 64.2 4.66667 66.6 6.8C69.1333 8.93334 70.4 11.4667 70.4 14.4C70.4 16.5333 69.6 18.4667 68 20.2C66.4 21.8 64 22.6 60.8 22.6C57.8667 22.6 55.5333 21.8667 53.8 20.4C52.2 18.8 50.8667 16.6 49.8 13.8C48.7333 10.8667 47.4667 8.6 46 7C44.5333 5.4 42.0667 4.6 38.6 4.6C32.2 4.6 27.2 7.53333 23.6 13.4C20 19.1333 18.2 26.6 18.2 35.8C18.2 42.6 19.2 48.8 21.2 54.4C23.3333 60 26.7333 64.5333 31.4 68C36.0667 71.3333 42.2667 73 50 73C53.8667 73 57.2667 72.5333 60.2 71.6C63.2667 70.6667 66.4 69.2 69.6 67.2C69.8667 66.9333 70.2 67.0667 70.6 67.6C71.1333 68.1333 71.2667 68.5333 71 68.8C66.3333 73.0667 61.5333 76.3333 56.6 78.6C51.8 80.7333 46.2667 81.8 40 81.8Z" fill="#F4F2EE"/>
<path d="M187.2 79.4C186.8 79.4 186.6 79 186.6 78.2C186.6 77.4 186.8 77 187.2 77C191.6 77 194.6 76.0667 196.2 74.2C197.8 72.3333 198.6 68.6667 198.6 63.2V33.4C198.6 18.7333 193.333 11.4 182.8 11.4C178.4 11.4 174.133 12.6 170 15C165.867 17.4 162.4 20.6667 159.6 24.8L158.6 22.4C163.533 15.2 168.8 9.66667 174.4 5.8C180.133 1.93333 186.2 0 192.6 0C199.533 0 204.933 2 208.8 6C212.667 10 214.6 16.2 214.6 24.6V63.2C214.6 68.6667 215.333 72.3333 216.8 74.2C218.4 76.0667 221.467 77 226 77C226.533 77 226.8 77.4 226.8 78.2C226.8 79 226.533 79.4 226 79.4C223.467 79.4 220.533 79.3333 217.2 79.2C213.867 79.0667 210.333 79 206.6 79C202.867 79 199.333 79.0667 196 79.2C192.667 79.3333 189.733 79.4 187.2 79.4ZM135 79.4C134.6 79.4 134.4 79 134.4 78.2C134.4 77.4 134.6 77 135 77C139.533 77 142.533 76.0667 144 74.2C145.6 72.3333 146.4 68.6667 146.4 63.2V33.4C146.4 18.7333 141.133 11.4 130.6 11.4C126.333 11.4 122.067 12.6 117.8 15C113.667 17.4 110.2 20.6667 107.4 24.8L106.4 22.4C111.333 15.2 116.6 9.66667 122.2 5.8C127.933 1.93333 134 0 140.4 0C147.467 0 152.867 1.93333 156.6 5.8C160.467 9.66667 162.4 15.4 162.4 23V63.2C162.4 68.6667 163.2 72.3333 164.8 74.2C166.4 76.0667 169.467 77 174 77C174.4 77 174.6 77.4 174.6 78.2C174.6 79 174.4 79.4 174 79.4C171.333 79.4 168.333 79.3333 165 79.2C161.667 79.0667 158.133 79 154.4 79C150.8 79 147.267 79.0667 143.8 79.2C140.467 79.3333 137.533 79.4 135 79.4ZM83.6 79.4C83.2 79.4 83 79 83 78.2C83 77.4 83.2 77 83.6 77C88.1333 77 91.1333 76.0667 92.6 74.2C94.0667 72.3333 94.8 68.6667 94.8 63.2V25C94.8 20.7333 94.3333 17.6 93.4 15.6C92.4667 13.6 90.8 12.6 88.4 12.6C87.2 12.6 85.7333 12.8667 84 13.4C82.2667 13.9333 80.4 14.6667 78.4 15.6C77.8667 15.7333 77.4 15.4667 77 14.8C76.7333 14 76.8 13.5333 77.2 13.4L103.4 0.599998C104.067 0.333331 104.533 0.199997 104.8 0.199997C106.133 0.199997 107.467 1.73333 108.8 4.8C110.267 7.86666 111 12.3333 111 18.2V63.2C111 68.6667 111.733 72.3333 113.2 74.2C114.8 76.0667 117.867 77 122.4 77C122.8 77 123 77.4 123 78.2C123 79 122.8 79.4 122.4 79.4C119.867 79.4 116.933 79.3333 113.6 79.2C110.267 79.0667 106.733 79 103 79C99.4 79 95.8667 79.0667 92.4 79.2C89.0667 79.3333 86.1333 79.4 83.6 79.4Z" fill="#A88A5A"/>
</svg>
